<svg xmlns="http://www.w3.org/2000/svg" width="100%" height="auto" viewBox="0 0 184 184" version="1.1" preserveAspectRatio="xMidYMid meet" style="max-width: 100%; max-height: 70vh;">
	<path d="M 101 39.070 C 91.714 40.193, 81.466 43.207, 73.194 47.249 L 66.887 50.330 60.694 48.155 C 53.340 45.572, 47.097 45.390, 42.700 47.631 C 37.466 50.298, 20.570 65.002, 19.632 67.706 C 18.368 71.349, 20.995 73.459, 31.019 76.856 L 39.500 79.731 39.226 83.919 C 38.648 92.741, 43.843 102.036, 51.011 105.004 C 54.248 106.346, 54.528 107.663, 52.694 112.920 C 51.585 116.097, 51.047 116.433, 45.155 117.627 C 39.124 118.849, 30.697 123.251, 27.874 126.652 C 26.736 128.023, 27.208 128.118, 32.102 127.506 C 38.348 126.726, 45.795 128.301, 46.672 130.588 C 46.985 131.403, 45.560 134.793, 43.506 138.121 C 41.132 141.967, 40.120 144.520, 40.727 145.127 C 41.253 145.653, 45.682 145.951, 50.569 145.791 L 59.456 145.500 63.361 140.260 C 67.236 135.060, 67.299 135.025, 71.383 135.760 C 78.316 137.007, 101.012 136.363, 106.766 134.755 L 112.032 133.285 113.915 137.541 C 117.294 145.180, 118.759 146, 129.031 146 C 135.958 146, 138.191 145.665, 138.614 144.564 C 138.917 143.774, 137.902 139.612, 136.358 135.314 C 134.125 129.096, 133.548 125.764, 133.536 119 C 133.521 111.293, 133.855 109.796, 137.114 102.953 C 139.221 98.528, 142.951 92.997, 146.130 89.582 L 151.552 83.757 155.026 85.875 C 164.743 91.798, 177 84.459, 177 72.718 C 177 64.806, 175.055 60.028, 169.521 54.340 C 161.767 46.371, 153.638 45.068, 146.923 50.718 C 143.395 53.687, 139.233 61.594, 135.984 71.500 C 134.721 75.350, 132.681 80.103, 131.450 82.062 C 126.413 90.079, 114.976 97.985, 99.190 104.360 L 92.880 106.909 93.190 103.811 C 93.455 101.165, 94.522 100.094, 100.500 96.473 C 114.622 87.922, 127.217 73.866, 134.711 58.297 C 136.618 54.335, 138.421 49.283, 138.717 47.071 C 139.212 43.383, 139.027 42.961, 136.497 41.999 C 128.542 38.974, 112.639 37.662, 101 39.070 M 91.763 55.565 C 83.820 59.875, 84.017 72.451, 92.096 76.791 C 95.252 78.487, 102.104 77.758, 105.318 75.386 C 114.978 68.257, 110.634 53.931, 98.846 54.040 C 96.456 54.062, 93.268 54.748, 91.763 55.565 M 93.655 61.829 C 91.207 64.534, 91.558 68.664, 94.394 70.523 C 98.764 73.386, 104 70.450, 104 65.137 C 104 60.432, 96.957 58.180, 93.655 61.829 M 166.073 64.927 C 163.588 67.412, 163.501 68.358, 165.571 70.429 C 167.580 72.437, 169.436 72.421, 171.479 70.379 C 173.528 68.329, 173.113 66.145, 170.323 64.296 C 168.365 62.998, 167.939 63.061, 166.073 64.927 M 19.876 89.487 C 11.219 93.948, 10.157 96.591, 16.214 98.600 L 18.927 99.500 14.896 104.779 C 9.184 112.259, 9.744 113.500, 18.834 113.500 L 26.132 113.500 25.547 116.612 C 24.533 121.998, 26.633 122.362, 34.767 118.207 C 38.727 116.184, 42.216 113.880, 42.520 113.087 C 42.849 112.230, 41.279 109.787, 38.653 107.072 C 33.223 101.458, 31.908 99.035, 30.468 92 C 29.785 88.664, 28.783 86.416, 27.921 86.286 C 27.140 86.169, 23.519 87.609, 19.876 89.487" stroke="none" fill="black" fill-rule="evenodd" data-index="0" style="opacity: 1; visibility: visible; fill: rgb(0, 0, 0);"></path>
</svg>